G04 #@! TF.GenerationSoftware,KiCad,Pcbnew,(5.1.4)-1*
G04 #@! TF.CreationDate,2020-09-22T21:35:24+03:00*
G04 #@! TF.ProjectId,ws8212b_disp,77733832-3132-4625-9f64-6973702e6b69,rev?*
G04 #@! TF.SameCoordinates,Original*
G04 #@! TF.FileFunction,Legend,Bot*
G04 #@! TF.FilePolarity,Positive*
%FSLAX46Y46*%
G04 Gerber Fmt 4.6, Leading zero omitted, Abs format (unit mm)*
G04 Created by KiCad (PCBNEW (5.1.4)-1) date 2020-09-22 21:35:24*
%MOMM*%
%LPD*%
G04 APERTURE LIST*
%ADD10C,0.150000*%
%ADD11C,0.300000*%
G04 APERTURE END LIST*
D10*
X85995823Y-69011161D02*
X85852966Y-69058780D01*
X85614871Y-69058780D01*
X85519633Y-69011161D01*
X85472014Y-68963542D01*
X85424395Y-68868304D01*
X85424395Y-68773066D01*
X85472014Y-68677828D01*
X85519633Y-68630209D01*
X85614871Y-68582590D01*
X85805347Y-68534971D01*
X85900585Y-68487352D01*
X85948204Y-68439733D01*
X85995823Y-68344495D01*
X85995823Y-68249257D01*
X85948204Y-68154019D01*
X85900585Y-68106400D01*
X85805347Y-68058780D01*
X85567252Y-68058780D01*
X85424395Y-68106400D01*
X84281538Y-68011161D02*
X85138680Y-69296876D01*
X83948204Y-69058780D02*
X83948204Y-68058780D01*
X83567252Y-68058780D01*
X83472014Y-68106400D01*
X83424395Y-68154019D01*
X83376776Y-68249257D01*
X83376776Y-68392114D01*
X83424395Y-68487352D01*
X83472014Y-68534971D01*
X83567252Y-68582590D01*
X83948204Y-68582590D01*
X85757728Y-69708780D02*
X85567252Y-69708780D01*
X85472014Y-69756400D01*
X85376776Y-69851638D01*
X85329157Y-70042114D01*
X85329157Y-70375447D01*
X85376776Y-70565923D01*
X85472014Y-70661161D01*
X85567252Y-70708780D01*
X85757728Y-70708780D01*
X85852966Y-70661161D01*
X85948204Y-70565923D01*
X85995823Y-70375447D01*
X85995823Y-70042114D01*
X85948204Y-69851638D01*
X85852966Y-69756400D01*
X85757728Y-69708780D01*
X84900585Y-70708780D02*
X84900585Y-69708780D01*
X84329157Y-70708780D01*
X84329157Y-69708780D01*
X83091061Y-70327828D02*
X82329157Y-70327828D01*
X81138680Y-70661161D02*
X80995823Y-70708780D01*
X80757728Y-70708780D01*
X80662490Y-70661161D01*
X80614871Y-70613542D01*
X80567252Y-70518304D01*
X80567252Y-70423066D01*
X80614871Y-70327828D01*
X80662490Y-70280209D01*
X80757728Y-70232590D01*
X80948204Y-70184971D01*
X81043442Y-70137352D01*
X81091061Y-70089733D01*
X81138680Y-69994495D01*
X81138680Y-69899257D01*
X81091061Y-69804019D01*
X81043442Y-69756400D01*
X80948204Y-69708780D01*
X80710109Y-69708780D01*
X80567252Y-69756400D01*
X79757728Y-70661161D02*
X79852966Y-70708780D01*
X80043442Y-70708780D01*
X80138680Y-70661161D01*
X80186300Y-70565923D01*
X80186300Y-70184971D01*
X80138680Y-70089733D01*
X80043442Y-70042114D01*
X79852966Y-70042114D01*
X79757728Y-70089733D01*
X79710109Y-70184971D01*
X79710109Y-70280209D01*
X80186300Y-70375447D01*
X79281538Y-70708780D02*
X79281538Y-70042114D01*
X79281538Y-70232590D02*
X79233919Y-70137352D01*
X79186300Y-70089733D01*
X79091061Y-70042114D01*
X78995823Y-70042114D01*
X78662490Y-70708780D02*
X78662490Y-70042114D01*
X78662490Y-69708780D02*
X78710109Y-69756400D01*
X78662490Y-69804019D01*
X78614871Y-69756400D01*
X78662490Y-69708780D01*
X78662490Y-69804019D01*
X77757728Y-70708780D02*
X77757728Y-70184971D01*
X77805347Y-70089733D01*
X77900585Y-70042114D01*
X78091061Y-70042114D01*
X78186300Y-70089733D01*
X77757728Y-70661161D02*
X77852966Y-70708780D01*
X78091061Y-70708780D01*
X78186300Y-70661161D01*
X78233919Y-70565923D01*
X78233919Y-70470685D01*
X78186300Y-70375447D01*
X78091061Y-70327828D01*
X77852966Y-70327828D01*
X77757728Y-70280209D01*
X77138680Y-70708780D02*
X77233919Y-70661161D01*
X77281538Y-70565923D01*
X77281538Y-69708780D01*
X75995823Y-70327828D02*
X75233919Y-70327828D01*
X73995823Y-70708780D02*
X73995823Y-69708780D01*
X73757728Y-69708780D01*
X73614871Y-69756400D01*
X73519633Y-69851638D01*
X73472014Y-69946876D01*
X73424395Y-70137352D01*
X73424395Y-70280209D01*
X73472014Y-70470685D01*
X73519633Y-70565923D01*
X73614871Y-70661161D01*
X73757728Y-70708780D01*
X73995823Y-70708780D01*
X72567252Y-70708780D02*
X72567252Y-70184971D01*
X72614871Y-70089733D01*
X72710109Y-70042114D01*
X72900585Y-70042114D01*
X72995823Y-70089733D01*
X72567252Y-70661161D02*
X72662490Y-70708780D01*
X72900585Y-70708780D01*
X72995823Y-70661161D01*
X73043442Y-70565923D01*
X73043442Y-70470685D01*
X72995823Y-70375447D01*
X72900585Y-70327828D01*
X72662490Y-70327828D01*
X72567252Y-70280209D01*
X72233919Y-70042114D02*
X71852966Y-70042114D01*
X72091061Y-69708780D02*
X72091061Y-70565923D01*
X72043442Y-70661161D01*
X71948204Y-70708780D01*
X71852966Y-70708780D01*
X71091061Y-70708780D02*
X71091061Y-70184971D01*
X71138680Y-70089733D01*
X71233919Y-70042114D01*
X71424395Y-70042114D01*
X71519633Y-70089733D01*
X71091061Y-70661161D02*
X71186300Y-70708780D01*
X71424395Y-70708780D01*
X71519633Y-70661161D01*
X71567252Y-70565923D01*
X71567252Y-70470685D01*
X71519633Y-70375447D01*
X71424395Y-70327828D01*
X71186300Y-70327828D01*
X71091061Y-70280209D01*
X69852966Y-70708780D02*
X69852966Y-69708780D01*
X69614871Y-69708780D01*
X69472014Y-69756400D01*
X69376776Y-69851638D01*
X69329157Y-69946876D01*
X69281538Y-70137352D01*
X69281538Y-70280209D01*
X69329157Y-70470685D01*
X69376776Y-70565923D01*
X69472014Y-70661161D01*
X69614871Y-70708780D01*
X69852966Y-70708780D01*
X68852966Y-70708780D02*
X68852966Y-69708780D01*
X68376776Y-70708780D02*
X68376776Y-69708780D01*
X67805347Y-70708780D01*
X67805347Y-69708780D01*
X66805347Y-70708780D02*
X67376776Y-70708780D01*
X67091061Y-70708780D02*
X67091061Y-69708780D01*
X67186300Y-69851638D01*
X67281538Y-69946876D01*
X67376776Y-69994495D01*
X85757728Y-71358780D02*
X85567252Y-71358780D01*
X85472014Y-71406400D01*
X85376776Y-71501638D01*
X85329157Y-71692114D01*
X85329157Y-72025447D01*
X85376776Y-72215923D01*
X85472014Y-72311161D01*
X85567252Y-72358780D01*
X85757728Y-72358780D01*
X85852966Y-72311161D01*
X85948204Y-72215923D01*
X85995823Y-72025447D01*
X85995823Y-71692114D01*
X85948204Y-71501638D01*
X85852966Y-71406400D01*
X85757728Y-71358780D01*
X84567252Y-71834971D02*
X84900585Y-71834971D01*
X84900585Y-72358780D02*
X84900585Y-71358780D01*
X84424395Y-71358780D01*
X83710109Y-71834971D02*
X84043442Y-71834971D01*
X84043442Y-72358780D02*
X84043442Y-71358780D01*
X83567252Y-71358780D01*
X82424395Y-71977828D02*
X81662490Y-71977828D01*
X80424395Y-72358780D02*
X80424395Y-71358780D01*
X80043442Y-71358780D01*
X79948204Y-71406400D01*
X79900585Y-71454019D01*
X79852966Y-71549257D01*
X79852966Y-71692114D01*
X79900585Y-71787352D01*
X79948204Y-71834971D01*
X80043442Y-71882590D01*
X80424395Y-71882590D01*
X78995823Y-72358780D02*
X78995823Y-71834971D01*
X79043442Y-71739733D01*
X79138680Y-71692114D01*
X79329157Y-71692114D01*
X79424395Y-71739733D01*
X78995823Y-72311161D02*
X79091061Y-72358780D01*
X79329157Y-72358780D01*
X79424395Y-72311161D01*
X79472014Y-72215923D01*
X79472014Y-72120685D01*
X79424395Y-72025447D01*
X79329157Y-71977828D01*
X79091061Y-71977828D01*
X78995823Y-71930209D01*
X78519633Y-72358780D02*
X78519633Y-71692114D01*
X78519633Y-71882590D02*
X78472014Y-71787352D01*
X78424395Y-71739733D01*
X78329157Y-71692114D01*
X78233919Y-71692114D01*
X77472014Y-72358780D02*
X77472014Y-71834971D01*
X77519633Y-71739733D01*
X77614871Y-71692114D01*
X77805347Y-71692114D01*
X77900585Y-71739733D01*
X77472014Y-72311161D02*
X77567252Y-72358780D01*
X77805347Y-72358780D01*
X77900585Y-72311161D01*
X77948204Y-72215923D01*
X77948204Y-72120685D01*
X77900585Y-72025447D01*
X77805347Y-71977828D01*
X77567252Y-71977828D01*
X77472014Y-71930209D01*
X76852966Y-72358780D02*
X76948204Y-72311161D01*
X76995823Y-72215923D01*
X76995823Y-71358780D01*
X76329157Y-72358780D02*
X76424395Y-72311161D01*
X76472014Y-72215923D01*
X76472014Y-71358780D01*
X75567252Y-72311161D02*
X75662490Y-72358780D01*
X75852966Y-72358780D01*
X75948204Y-72311161D01*
X75995823Y-72215923D01*
X75995823Y-71834971D01*
X75948204Y-71739733D01*
X75852966Y-71692114D01*
X75662490Y-71692114D01*
X75567252Y-71739733D01*
X75519633Y-71834971D01*
X75519633Y-71930209D01*
X75995823Y-72025447D01*
X74948204Y-72358780D02*
X75043442Y-72311161D01*
X75091061Y-72215923D01*
X75091061Y-71358780D01*
X73805347Y-71977828D02*
X73043442Y-71977828D01*
X71948204Y-71358780D02*
X71376776Y-71358780D01*
X71662490Y-72358780D02*
X71662490Y-71358780D01*
X70852966Y-71358780D02*
X70662490Y-71358780D01*
X70567252Y-71406400D01*
X70472014Y-71501638D01*
X70424395Y-71692114D01*
X70424395Y-72025447D01*
X70472014Y-72215923D01*
X70567252Y-72311161D01*
X70662490Y-72358780D01*
X70852966Y-72358780D01*
X70948204Y-72311161D01*
X71043442Y-72215923D01*
X71091061Y-72025447D01*
X71091061Y-71692114D01*
X71043442Y-71501638D01*
X70948204Y-71406400D01*
X70852966Y-71358780D01*
X69995823Y-72358780D02*
X69995823Y-71358780D01*
X69614871Y-71358780D01*
X69519633Y-71406400D01*
X69472014Y-71454019D01*
X69424395Y-71549257D01*
X69424395Y-71692114D01*
X69472014Y-71787352D01*
X69519633Y-71834971D01*
X69614871Y-71882590D01*
X69995823Y-71882590D01*
X67805347Y-71692114D02*
X67805347Y-72358780D01*
X68043442Y-71311161D02*
X68281538Y-72025447D01*
X67662490Y-72025447D01*
X66519633Y-72358780D02*
X66519633Y-71692114D01*
X66519633Y-71882590D02*
X66472014Y-71787352D01*
X66424395Y-71739733D01*
X66329157Y-71692114D01*
X66233919Y-71692114D01*
X65757728Y-72358780D02*
X65852966Y-72311161D01*
X65900585Y-72263542D01*
X65948204Y-72168304D01*
X65948204Y-71882590D01*
X65900585Y-71787352D01*
X65852966Y-71739733D01*
X65757728Y-71692114D01*
X65614871Y-71692114D01*
X65519633Y-71739733D01*
X65472014Y-71787352D01*
X65424395Y-71882590D01*
X65424395Y-72168304D01*
X65472014Y-72263542D01*
X65519633Y-72311161D01*
X65614871Y-72358780D01*
X65757728Y-72358780D01*
X65091061Y-71692114D02*
X64900585Y-72358780D01*
X64710109Y-71882590D01*
X64519633Y-72358780D01*
X64329157Y-71692114D01*
X63995823Y-72311161D02*
X63900585Y-72358780D01*
X63710109Y-72358780D01*
X63614871Y-72311161D01*
X63567252Y-72215923D01*
X63567252Y-72168304D01*
X63614871Y-72073066D01*
X63710109Y-72025447D01*
X63852966Y-72025447D01*
X63948204Y-71977828D01*
X63995823Y-71882590D01*
X63995823Y-71834971D01*
X63948204Y-71739733D01*
X63852966Y-71692114D01*
X63710109Y-71692114D01*
X63614871Y-71739733D01*
X62376776Y-72358780D02*
X62376776Y-71358780D01*
X62138680Y-71358780D01*
X61995823Y-71406400D01*
X61900585Y-71501638D01*
X61852966Y-71596876D01*
X61805347Y-71787352D01*
X61805347Y-71930209D01*
X61852966Y-72120685D01*
X61900585Y-72215923D01*
X61995823Y-72311161D01*
X62138680Y-72358780D01*
X62376776Y-72358780D01*
X60948204Y-72358780D02*
X60948204Y-71834971D01*
X60995823Y-71739733D01*
X61091061Y-71692114D01*
X61281538Y-71692114D01*
X61376776Y-71739733D01*
X60948204Y-72311161D02*
X61043442Y-72358780D01*
X61281538Y-72358780D01*
X61376776Y-72311161D01*
X61424395Y-72215923D01*
X61424395Y-72120685D01*
X61376776Y-72025447D01*
X61281538Y-71977828D01*
X61043442Y-71977828D01*
X60948204Y-71930209D01*
X60614871Y-71692114D02*
X60233919Y-71692114D01*
X60472014Y-71358780D02*
X60472014Y-72215923D01*
X60424395Y-72311161D01*
X60329157Y-72358780D01*
X60233919Y-72358780D01*
X59472014Y-72358780D02*
X59472014Y-71834971D01*
X59519633Y-71739733D01*
X59614871Y-71692114D01*
X59805347Y-71692114D01*
X59900585Y-71739733D01*
X59472014Y-72311161D02*
X59567252Y-72358780D01*
X59805347Y-72358780D01*
X59900585Y-72311161D01*
X59948204Y-72215923D01*
X59948204Y-72120685D01*
X59900585Y-72025447D01*
X59805347Y-71977828D01*
X59567252Y-71977828D01*
X59472014Y-71930209D01*
X58233919Y-72358780D02*
X58233919Y-71358780D01*
X57995823Y-71358780D01*
X57852966Y-71406400D01*
X57757728Y-71501638D01*
X57710109Y-71596876D01*
X57662490Y-71787352D01*
X57662490Y-71930209D01*
X57710109Y-72120685D01*
X57757728Y-72215923D01*
X57852966Y-72311161D01*
X57995823Y-72358780D01*
X58233919Y-72358780D01*
X57233919Y-72358780D02*
X57233919Y-71358780D01*
X56757728Y-72358780D02*
X56757728Y-71358780D01*
X56186300Y-72358780D01*
X56186300Y-71358780D01*
X55186300Y-72358780D02*
X55757728Y-72358780D01*
X55472014Y-72358780D02*
X55472014Y-71358780D01*
X55567252Y-71501638D01*
X55662490Y-71596876D01*
X55757728Y-71644495D01*
X54710109Y-72311161D02*
X54710109Y-72358780D01*
X54757728Y-72454019D01*
X54805347Y-72501638D01*
X53186300Y-71834971D02*
X53043442Y-71882590D01*
X52995823Y-71930209D01*
X52948204Y-72025447D01*
X52948204Y-72168304D01*
X52995823Y-72263542D01*
X53043442Y-72311161D01*
X53138680Y-72358780D01*
X53519633Y-72358780D01*
X53519633Y-71358780D01*
X53186300Y-71358780D01*
X53091061Y-71406400D01*
X53043442Y-71454019D01*
X52995823Y-71549257D01*
X52995823Y-71644495D01*
X53043442Y-71739733D01*
X53091061Y-71787352D01*
X53186300Y-71834971D01*
X53519633Y-71834971D01*
X52329157Y-71358780D02*
X52138680Y-71358780D01*
X52043442Y-71406400D01*
X51948204Y-71501638D01*
X51900585Y-71692114D01*
X51900585Y-72025447D01*
X51948204Y-72215923D01*
X52043442Y-72311161D01*
X52138680Y-72358780D01*
X52329157Y-72358780D01*
X52424395Y-72311161D01*
X52519633Y-72215923D01*
X52567252Y-72025447D01*
X52567252Y-71692114D01*
X52519633Y-71501638D01*
X52424395Y-71406400D01*
X52329157Y-71358780D01*
X51614871Y-71358780D02*
X51043442Y-71358780D01*
X51329157Y-72358780D02*
X51329157Y-71358780D01*
X50852966Y-71358780D02*
X50281538Y-71358780D01*
X50567252Y-72358780D02*
X50567252Y-71358780D01*
X49757728Y-71358780D02*
X49567252Y-71358780D01*
X49472014Y-71406400D01*
X49376776Y-71501638D01*
X49329157Y-71692114D01*
X49329157Y-72025447D01*
X49376776Y-72215923D01*
X49472014Y-72311161D01*
X49567252Y-72358780D01*
X49757728Y-72358780D01*
X49852966Y-72311161D01*
X49948204Y-72215923D01*
X49995823Y-72025447D01*
X49995823Y-71692114D01*
X49948204Y-71501638D01*
X49852966Y-71406400D01*
X49757728Y-71358780D01*
X48900585Y-72358780D02*
X48900585Y-71358780D01*
X48567252Y-72073066D01*
X48233919Y-71358780D01*
X48233919Y-72358780D01*
X46567252Y-71692114D02*
X46567252Y-72358780D01*
X46805347Y-71311161D02*
X47043442Y-72025447D01*
X46424395Y-72025447D01*
X45281538Y-72358780D02*
X45281538Y-71692114D01*
X45281538Y-71882590D02*
X45233919Y-71787352D01*
X45186300Y-71739733D01*
X45091061Y-71692114D01*
X44995823Y-71692114D01*
X44519633Y-72358780D02*
X44614871Y-72311161D01*
X44662490Y-72263542D01*
X44710109Y-72168304D01*
X44710109Y-71882590D01*
X44662490Y-71787352D01*
X44614871Y-71739733D01*
X44519633Y-71692114D01*
X44376776Y-71692114D01*
X44281538Y-71739733D01*
X44233919Y-71787352D01*
X44186300Y-71882590D01*
X44186300Y-72168304D01*
X44233919Y-72263542D01*
X44281538Y-72311161D01*
X44376776Y-72358780D01*
X44519633Y-72358780D01*
X43852966Y-71692114D02*
X43662490Y-72358780D01*
X43472014Y-71882590D01*
X43281538Y-72358780D01*
X43091061Y-71692114D01*
X42757728Y-72311161D02*
X42662490Y-72358780D01*
X42472014Y-72358780D01*
X42376776Y-72311161D01*
X42329157Y-72215923D01*
X42329157Y-72168304D01*
X42376776Y-72073066D01*
X42472014Y-72025447D01*
X42614871Y-72025447D01*
X42710109Y-71977828D01*
X42757728Y-71882590D01*
X42757728Y-71834971D01*
X42710109Y-71739733D01*
X42614871Y-71692114D01*
X42472014Y-71692114D01*
X42376776Y-71739733D01*
X41138680Y-72358780D02*
X41138680Y-71358780D01*
X40900585Y-71358780D01*
X40757728Y-71406400D01*
X40662490Y-71501638D01*
X40614871Y-71596876D01*
X40567252Y-71787352D01*
X40567252Y-71930209D01*
X40614871Y-72120685D01*
X40662490Y-72215923D01*
X40757728Y-72311161D01*
X40900585Y-72358780D01*
X41138680Y-72358780D01*
X40138680Y-72358780D02*
X40138680Y-71358780D01*
X39662490Y-72358780D02*
X39662490Y-71358780D01*
X39091061Y-72358780D01*
X39091061Y-71358780D01*
X38662490Y-71454019D02*
X38614871Y-71406400D01*
X38519633Y-71358780D01*
X38281538Y-71358780D01*
X38186300Y-71406400D01*
X38138680Y-71454019D01*
X38091061Y-71549257D01*
X38091061Y-71644495D01*
X38138680Y-71787352D01*
X38710109Y-72358780D01*
X38091061Y-72358780D01*
D11*
X91973800Y-96003371D02*
X91616657Y-97503371D01*
X91330942Y-96431942D01*
X91045228Y-97503371D01*
X90688085Y-96003371D01*
X90188085Y-97431942D02*
X89973800Y-97503371D01*
X89616657Y-97503371D01*
X89473800Y-97431942D01*
X89402371Y-97360514D01*
X89330942Y-97217657D01*
X89330942Y-97074800D01*
X89402371Y-96931942D01*
X89473800Y-96860514D01*
X89616657Y-96789085D01*
X89902371Y-96717657D01*
X90045228Y-96646228D01*
X90116657Y-96574800D01*
X90188085Y-96431942D01*
X90188085Y-96289085D01*
X90116657Y-96146228D01*
X90045228Y-96074800D01*
X89902371Y-96003371D01*
X89545228Y-96003371D01*
X89330942Y-96074800D01*
X88759514Y-96146228D02*
X88688085Y-96074800D01*
X88545228Y-96003371D01*
X88188085Y-96003371D01*
X88045228Y-96074800D01*
X87973800Y-96146228D01*
X87902371Y-96289085D01*
X87902371Y-96431942D01*
X87973800Y-96646228D01*
X88830942Y-97503371D01*
X87902371Y-97503371D01*
X87045228Y-96646228D02*
X87188085Y-96574800D01*
X87259514Y-96503371D01*
X87330942Y-96360514D01*
X87330942Y-96289085D01*
X87259514Y-96146228D01*
X87188085Y-96074800D01*
X87045228Y-96003371D01*
X86759514Y-96003371D01*
X86616657Y-96074800D01*
X86545228Y-96146228D01*
X86473800Y-96289085D01*
X86473800Y-96360514D01*
X86545228Y-96503371D01*
X86616657Y-96574800D01*
X86759514Y-96646228D01*
X87045228Y-96646228D01*
X87188085Y-96717657D01*
X87259514Y-96789085D01*
X87330942Y-96931942D01*
X87330942Y-97217657D01*
X87259514Y-97360514D01*
X87188085Y-97431942D01*
X87045228Y-97503371D01*
X86759514Y-97503371D01*
X86616657Y-97431942D01*
X86545228Y-97360514D01*
X86473800Y-97217657D01*
X86473800Y-96931942D01*
X86545228Y-96789085D01*
X86616657Y-96717657D01*
X86759514Y-96646228D01*
X85045228Y-97503371D02*
X85902371Y-97503371D01*
X85473800Y-97503371D02*
X85473800Y-96003371D01*
X85616657Y-96217657D01*
X85759514Y-96360514D01*
X85902371Y-96431942D01*
X84473800Y-96146228D02*
X84402371Y-96074800D01*
X84259514Y-96003371D01*
X83902371Y-96003371D01*
X83759514Y-96074800D01*
X83688085Y-96146228D01*
X83616657Y-96289085D01*
X83616657Y-96431942D01*
X83688085Y-96646228D01*
X84545228Y-97503371D01*
X83616657Y-97503371D01*
X82973800Y-97503371D02*
X82973800Y-96003371D01*
X82973800Y-96574800D02*
X82830942Y-96503371D01*
X82545228Y-96503371D01*
X82402371Y-96574800D01*
X82330942Y-96646228D01*
X82259514Y-96789085D01*
X82259514Y-97217657D01*
X82330942Y-97360514D01*
X82402371Y-97431942D01*
X82545228Y-97503371D01*
X82830942Y-97503371D01*
X82973800Y-97431942D01*
X80473800Y-97503371D02*
X80473800Y-96003371D01*
X80116657Y-96003371D01*
X79902371Y-96074800D01*
X79759514Y-96217657D01*
X79688085Y-96360514D01*
X79616657Y-96646228D01*
X79616657Y-96860514D01*
X79688085Y-97146228D01*
X79759514Y-97289085D01*
X79902371Y-97431942D01*
X80116657Y-97503371D01*
X80473800Y-97503371D01*
X78973800Y-97503371D02*
X78973800Y-96503371D01*
X78973800Y-96003371D02*
X79045228Y-96074800D01*
X78973800Y-96146228D01*
X78902371Y-96074800D01*
X78973800Y-96003371D01*
X78973800Y-96146228D01*
X78330942Y-97431942D02*
X78188085Y-97503371D01*
X77902371Y-97503371D01*
X77759514Y-97431942D01*
X77688085Y-97289085D01*
X77688085Y-97217657D01*
X77759514Y-97074800D01*
X77902371Y-97003371D01*
X78116657Y-97003371D01*
X78259514Y-96931942D01*
X78330942Y-96789085D01*
X78330942Y-96717657D01*
X78259514Y-96574800D01*
X78116657Y-96503371D01*
X77902371Y-96503371D01*
X77759514Y-96574800D01*
X77045228Y-96503371D02*
X77045228Y-98003371D01*
X77045228Y-96574800D02*
X76902371Y-96503371D01*
X76616657Y-96503371D01*
X76473800Y-96574800D01*
X76402371Y-96646228D01*
X76330942Y-96789085D01*
X76330942Y-97217657D01*
X76402371Y-97360514D01*
X76473800Y-97431942D01*
X76616657Y-97503371D01*
X76902371Y-97503371D01*
X77045228Y-97431942D01*
X75473800Y-97503371D02*
X75616657Y-97431942D01*
X75688085Y-97289085D01*
X75688085Y-96003371D01*
X74259514Y-97503371D02*
X74259514Y-96717657D01*
X74330942Y-96574800D01*
X74473800Y-96503371D01*
X74759514Y-96503371D01*
X74902371Y-96574800D01*
X74259514Y-97431942D02*
X74402371Y-97503371D01*
X74759514Y-97503371D01*
X74902371Y-97431942D01*
X74973800Y-97289085D01*
X74973800Y-97146228D01*
X74902371Y-97003371D01*
X74759514Y-96931942D01*
X74402371Y-96931942D01*
X74259514Y-96860514D01*
X73688085Y-96503371D02*
X73330942Y-97503371D01*
X72973800Y-96503371D02*
X73330942Y-97503371D01*
X73473800Y-97860514D01*
X73545228Y-97931942D01*
X73688085Y-98003371D01*
X91636714Y-101275200D02*
X91708142Y-101203771D01*
X91851000Y-100989485D01*
X91922428Y-100846628D01*
X91993857Y-100632342D01*
X92065285Y-100275200D01*
X92065285Y-99989485D01*
X91993857Y-99632342D01*
X91922428Y-99418057D01*
X91851000Y-99275200D01*
X91708142Y-99060914D01*
X91636714Y-98989485D01*
X90208142Y-100560914D02*
X90279571Y-100632342D01*
X90493857Y-100703771D01*
X90636714Y-100703771D01*
X90851000Y-100632342D01*
X90993857Y-100489485D01*
X91065285Y-100346628D01*
X91136714Y-100060914D01*
X91136714Y-99846628D01*
X91065285Y-99560914D01*
X90993857Y-99418057D01*
X90851000Y-99275200D01*
X90636714Y-99203771D01*
X90493857Y-99203771D01*
X90279571Y-99275200D01*
X90208142Y-99346628D01*
X89708142Y-101275200D02*
X89636714Y-101203771D01*
X89493857Y-100989485D01*
X89422428Y-100846628D01*
X89351000Y-100632342D01*
X89279571Y-100275200D01*
X89279571Y-99989485D01*
X89351000Y-99632342D01*
X89422428Y-99418057D01*
X89493857Y-99275200D01*
X89636714Y-99060914D01*
X89708142Y-98989485D01*
X87422428Y-100703771D02*
X87422428Y-99703771D01*
X87422428Y-99203771D02*
X87493857Y-99275200D01*
X87422428Y-99346628D01*
X87351000Y-99275200D01*
X87422428Y-99203771D01*
X87422428Y-99346628D01*
X86493857Y-100703771D02*
X86636714Y-100632342D01*
X86708142Y-100489485D01*
X86708142Y-99203771D01*
X85279571Y-99703771D02*
X85279571Y-100703771D01*
X85922428Y-99703771D02*
X85922428Y-100489485D01*
X85851000Y-100632342D01*
X85708142Y-100703771D01*
X85493857Y-100703771D01*
X85351000Y-100632342D01*
X85279571Y-100560914D01*
X84636714Y-100632342D02*
X84493857Y-100703771D01*
X84208142Y-100703771D01*
X84065285Y-100632342D01*
X83993857Y-100489485D01*
X83993857Y-100418057D01*
X84065285Y-100275200D01*
X84208142Y-100203771D01*
X84422428Y-100203771D01*
X84565285Y-100132342D01*
X84636714Y-99989485D01*
X84636714Y-99918057D01*
X84565285Y-99775200D01*
X84422428Y-99703771D01*
X84208142Y-99703771D01*
X84065285Y-99775200D01*
X82208142Y-99918057D02*
X81708142Y-99918057D01*
X81493857Y-100703771D02*
X82208142Y-100703771D01*
X82208142Y-99203771D01*
X81493857Y-99203771D01*
X80636714Y-100703771D02*
X80779571Y-100632342D01*
X80851000Y-100489485D01*
X80851000Y-99203771D01*
X79493857Y-100632342D02*
X79636714Y-100703771D01*
X79922428Y-100703771D01*
X80065285Y-100632342D01*
X80136714Y-100489485D01*
X80136714Y-99918057D01*
X80065285Y-99775200D01*
X79922428Y-99703771D01*
X79636714Y-99703771D01*
X79493857Y-99775200D01*
X79422428Y-99918057D01*
X79422428Y-100060914D01*
X80136714Y-100203771D01*
X78136714Y-100632342D02*
X78279571Y-100703771D01*
X78565285Y-100703771D01*
X78708142Y-100632342D01*
X78779571Y-100560914D01*
X78851000Y-100418057D01*
X78851000Y-99989485D01*
X78779571Y-99846628D01*
X78708142Y-99775200D01*
X78565285Y-99703771D01*
X78279571Y-99703771D01*
X78136714Y-99775200D01*
X77708142Y-99703771D02*
X77136714Y-99703771D01*
X77493857Y-99203771D02*
X77493857Y-100489485D01*
X77422428Y-100632342D01*
X77279571Y-100703771D01*
X77136714Y-100703771D01*
X76636714Y-100703771D02*
X76636714Y-99703771D01*
X76636714Y-99989485D02*
X76565285Y-99846628D01*
X76493857Y-99775200D01*
X76351000Y-99703771D01*
X76208142Y-99703771D01*
X75493857Y-100703771D02*
X75636714Y-100632342D01*
X75708142Y-100560914D01*
X75779571Y-100418057D01*
X75779571Y-99989485D01*
X75708142Y-99846628D01*
X75636714Y-99775200D01*
X75493857Y-99703771D01*
X75279571Y-99703771D01*
X75136714Y-99775200D01*
X75065285Y-99846628D01*
X74993857Y-99989485D01*
X74993857Y-100418057D01*
X75065285Y-100560914D01*
X75136714Y-100632342D01*
X75279571Y-100703771D01*
X75493857Y-100703771D01*
X74351000Y-99703771D02*
X74351000Y-100703771D01*
X74351000Y-99846628D02*
X74279571Y-99775200D01*
X74136714Y-99703771D01*
X73922428Y-99703771D01*
X73779571Y-99775200D01*
X73708142Y-99918057D01*
X73708142Y-100703771D01*
X72993857Y-100703771D02*
X72993857Y-99703771D01*
X72993857Y-99203771D02*
X73065285Y-99275200D01*
X72993857Y-99346628D01*
X72922428Y-99275200D01*
X72993857Y-99203771D01*
X72993857Y-99346628D01*
X71636714Y-100632342D02*
X71779571Y-100703771D01*
X72065285Y-100703771D01*
X72208142Y-100632342D01*
X72279571Y-100560914D01*
X72351000Y-100418057D01*
X72351000Y-99989485D01*
X72279571Y-99846628D01*
X72208142Y-99775200D01*
X72065285Y-99703771D01*
X71779571Y-99703771D01*
X71636714Y-99775200D01*
X71065285Y-100632342D02*
X70922428Y-100703771D01*
X70636714Y-100703771D01*
X70493857Y-100632342D01*
X70422428Y-100489485D01*
X70422428Y-100418057D01*
X70493857Y-100275200D01*
X70636714Y-100203771D01*
X70851000Y-100203771D01*
X70993857Y-100132342D01*
X71065285Y-99989485D01*
X71065285Y-99918057D01*
X70993857Y-99775200D01*
X70851000Y-99703771D01*
X70636714Y-99703771D01*
X70493857Y-99775200D01*
X68708142Y-99346628D02*
X68636714Y-99275200D01*
X68493857Y-99203771D01*
X68136714Y-99203771D01*
X67993857Y-99275200D01*
X67922428Y-99346628D01*
X67851000Y-99489485D01*
X67851000Y-99632342D01*
X67922428Y-99846628D01*
X68779571Y-100703771D01*
X67851000Y-100703771D01*
X66922428Y-99203771D02*
X66779571Y-99203771D01*
X66636714Y-99275200D01*
X66565285Y-99346628D01*
X66493857Y-99489485D01*
X66422428Y-99775200D01*
X66422428Y-100132342D01*
X66493857Y-100418057D01*
X66565285Y-100560914D01*
X66636714Y-100632342D01*
X66779571Y-100703771D01*
X66922428Y-100703771D01*
X67065285Y-100632342D01*
X67136714Y-100560914D01*
X67208142Y-100418057D01*
X67279571Y-100132342D01*
X67279571Y-99775200D01*
X67208142Y-99489485D01*
X67136714Y-99346628D01*
X67065285Y-99275200D01*
X66922428Y-99203771D01*
X65851000Y-99346628D02*
X65779571Y-99275200D01*
X65636714Y-99203771D01*
X65279571Y-99203771D01*
X65136714Y-99275200D01*
X65065285Y-99346628D01*
X64993857Y-99489485D01*
X64993857Y-99632342D01*
X65065285Y-99846628D01*
X65922428Y-100703771D01*
X64993857Y-100703771D01*
X64065285Y-99203771D02*
X63922428Y-99203771D01*
X63779571Y-99275200D01*
X63708142Y-99346628D01*
X63636714Y-99489485D01*
X63565285Y-99775200D01*
X63565285Y-100132342D01*
X63636714Y-100418057D01*
X63708142Y-100560914D01*
X63779571Y-100632342D01*
X63922428Y-100703771D01*
X64065285Y-100703771D01*
X64208142Y-100632342D01*
X64279571Y-100560914D01*
X64351000Y-100418057D01*
X64422428Y-100132342D01*
X64422428Y-99775200D01*
X64351000Y-99489485D01*
X64279571Y-99346628D01*
X64208142Y-99275200D01*
X64065285Y-99203771D01*
M02*
