M48
; DRILL file {KiCad (5.1.4)-1} date 22/09/2020 21:35:20
; FORMAT={-:-/ absolute / inch / decimal}
; #@! TF.CreationDate,2020-09-22T21:35:20+03:00
; #@! TF.GenerationSoftware,Kicad,Pcbnew,(5.1.4)-1
; #@! TF.FileFunction,Plated,1,2,PTH
FMAT,2
INCH
T1C0.0157
T2C0.0394
%
G90
G05
T1
X1.262Y-3.04
X1.27Y-2.589
X1.275Y-3.492
X1.276Y-2.816
X1.276Y-3.718
X1.277Y-3.941
X3.677Y-3.815
X3.68Y-3.592
X3.682Y-3.366
X3.682Y-2.241
X3.685Y-3.142
X3.686Y-2.463
X3.686Y-2.917
X3.687Y-2.688
T2
X1.126Y-2.264
X1.126Y-2.364
X1.126Y-2.464
X1.126Y-2.564
X1.126Y-2.664
X1.126Y-2.962
X1.126Y-3.062
T0
M30
